<svg version="1.1" xmlns="http://www.w3.org/2000/svg" xmlns:xlink="http://www.w3.org/1999/xlink" width="655.8" height="520"><defs/><g transform="translate(0,0)"><g><rect fill="#FFFFFF" stroke="none" x="0" y="0" width="655.8" height="520"/></g><g transform="translate(0,0) matrix(1,0,0,1,40,30)"><g><g transform="translate(0,0) scale(2.75,1.2)"><g><path fill="#ffffff" stroke="none" d="M 0 0 L 100 0 Q 100 0 100 0 L 100 100 Q 100 100 100 100 L 0 100 Q 0 100 0 100 L 0 0 Q 0 0 0 0 Z"/><g transform="scale(0.36363636363636365,0.8333333333333334)"><path fill="none" stroke="none" d="M 0 0 L 275 0 Q 275 0 275 0 L 275 120 Q 275 120 275 120 L 0 120 Q 0 120 0 120 L 0 0 Q 0 0 0 0 Z"/><path fill="none" stroke="#333333" d="M 0 0 M 0 0 L 275 0 Q 275 0 275 0 L 275 120 Q 275 120 275 120 L 0 120 Q 0 120 0 120 L 0 0 Q 0 0 0 0 Z" stroke-miterlimit="10" stroke-width="2"/></g></g></g></g></g><g transform="scale(1,1) matrix(1,0,0,1,45.5,30) translate(8,8)"><text fill="#000000" stroke="none" font-family="Arial" font-size="14px" font-style="normal" font-weight="normal" text-decoration="none" x="69.92773437499994" y="14">Project Customer</text><text fill="#000000" stroke="none" font-family="Arial" font-size="14px" font-style="normal" font-weight="normal" text-decoration="none" x="15.841796874999943" y="30">SINTEF Fisheries and Aquaculture</text></g><g transform="translate(0,0) matrix(1,0,0,1,80,220)"><g><g transform="translate(0,0) scale(4.7,2.8)"><g><path fill="#FFFFFF" stroke="none" d="M 0 0 L 100 0 Q 100 0 100 0 L 100 100 Q 100 100 100 100 L 0 100 Q 0 100 0 100 L 0 0 Q 0 0 0 0 Z"/><g transform="scale(0.2127659574468085,0.35714285714285715)"><path fill="none" stroke="none" d="M 0 0 L 470 0 Q 470 0 470 0 L 470 280 Q 470 280 470 280 L 0 280 Q 0 280 0 280 L 0 0 Q 0 0 0 0 Z"/><path fill="none" stroke="#333333" d="M 0 0 M 0 0 L 470 0 Q 470 0 470 0 L 470 280 Q 470 280 470 280 L 0 280 Q 0 280 0 280 L 0 0 Q 0 0 0 0 Z" stroke-miterlimit="10" stroke-width="2"/></g></g></g></g></g><g transform="scale(1,1) matrix(1,0,0,1,89.39999999999999,220) translate(8,8)"><text fill="#000000" stroke="none" font-family="Arial" font-size="14px" font-style="normal" font-weight="normal" text-decoration="none" x="156.90712890624988" y="14">TDT4290 - Group 6</text></g><g transform="translate(0,0) matrix(1,0,0,1,96.39705882352939,90)"><g><g transform="translate(0,0) scale(1.475,0.4)"><g><path fill="#ffffff" stroke="none" d="M 0 0 L 100 0 Q 100 0 100 0 L 100 100 Q 100 100 100 100 L 0 100 Q 0 100 0 100 L 0 0 Q 0 0 0 0 Z"/><g transform="scale(0.6779661016949152,2.5)"><path fill="none" stroke="none" d="M 0 0 L 147.5 0 Q 147.5 0 147.5 0 L 147.5 40 Q 147.5 40 147.5 40 L 0 40 Q 0 40 0 40 L 0 0 Q 0 0 0 0 Z"/><path fill="none" stroke="#333333" d="M 0 0 M 0 0 L 147.5 0 Q 147.5 0 147.5 0 L 147.5 40 Q 147.5 40 147.5 40 L 0 40 Q 0 40 0 40 L 0 0 Q 0 0 0 0 Z" stroke-miterlimit="10" stroke-width="2"/></g></g></g></g></g><g transform="scale(1,1) matrix(1,0,0,1,99.3470588235294,90) translate(8,6)"><text fill="#000000" stroke="none" font-family="Arial" font-size="12px" font-style="normal" font-weight="bold" text-decoration="none" x="7.464062500000011" y="11">Finn Olav Bjornson</text><text fill="#000000" stroke="none" font-family="Arial" font-size="12px" font-style="italic" font-weight="normal" text-decoration="none" x="15.781445312500011" y="25">Customer contact</text></g><g transform="translate(0,0) matrix(1,0,0,1,222.5,250)"><g><g transform="translate(0,0) scale(1.8499999999999996,0.55)"><g><path fill="#ffffff" stroke="none" d="M 0 0 L 100 0 Q 100 0 100 0 L 100 100 Q 100 100 100 100 L 0 100 Q 0 100 0 100 L 0 0 Q 0 0 0 0 Z"/><g transform="scale(0.5405405405405407,1.8181818181818181)"><path fill="none" stroke="none" d="M 0 0 L 184.99999999999997 0 Q 184.99999999999997 0 184.99999999999997 0 L 184.99999999999997 55.00000000000001 Q 184.99999999999997 55.00000000000001 184.99999999999997 55.00000000000001 L 0 55.00000000000001 Q 0 55.00000000000001 0 55.00000000000001 L 0 0 Q 0 0 0 0 Z"/><path fill="none" stroke="#333333" d="M 0 0 M 0 0 L 184.99999999999997 0 Q 184.99999999999997 0 184.99999999999997 0 L 184.99999999999997 55.00000000000001 Q 184.99999999999997 55.00000000000001 184.99999999999997 55.00000000000001 L 0 55.00000000000001 Q 0 55.00000000000001 0 55.00000000000001 L 0 0 Q 0 0 0 0 Z" stroke-miterlimit="10" stroke-width="2"/></g></g></g></g></g><g transform="scale(1,1) matrix(1,0,0,1,226.2,250) translate(8,6.5)"><text fill="#000000" stroke="none" font-family="Arial" font-size="12px" font-style="normal" font-weight="bold" text-decoration="none" x="11.442578125000011" y="11">Hans Kristian Henriksen</text><text fill="#000000" stroke="none" font-family="Arial" font-size="12px" font-style="italic" font-weight="normal" text-decoration="none" x="7.428906250000011" y="25">Advisor contact responsible</text><text fill="#000000" stroke="none" font-family="Arial" font-size="12px" font-style="italic" font-weight="normal" text-decoration="none" x="8.091015625000011" y="39">Documentation responsible</text></g><g transform="translate(0,0) matrix(1,0,0,1,110.00000000000001,377.5)"><g><g transform="translate(0,0) scale(1.8499999999999996,0.4)"><g><path fill="#ffffff" stroke="none" d="M 0 0 L 100 0 Q 100 0 100 0 L 100 100 Q 100 100 100 100 L 0 100 Q 0 100 0 100 L 0 0 Q 0 0 0 0 Z"/><g transform="scale(0.5405405405405407,2.5)"><path fill="none" stroke="none" d="M 0 0 L 184.99999999999997 0 Q 184.99999999999997 0 184.99999999999997 0 L 184.99999999999997 40 Q 184.99999999999997 40 184.99999999999997 40 L 0 40 Q 0 40 0 40 L 0 0 Q 0 0 0 0 Z"/><path fill="none" stroke="#333333" d="M 0 0 M 0 0 L 184.99999999999997 0 Q 184.99999999999997 0 184.99999999999997 0 L 184.99999999999997 40 Q 184.99999999999997 40 184.99999999999997 40 L 0 40 Q 0 40 0 40 L 0 0 Q 0 0 0 0 Z" stroke-miterlimit="10" stroke-width="2"/></g></g></g></g></g><g transform="scale(1,1) matrix(1,0,0,1,113.70000000000002,377.5) translate(8,6)"><text fill="#000000" stroke="none" font-family="Arial" font-size="12px" font-style="normal" font-weight="bold" text-decoration="none" x="45.1193359375" y="11">Arve Nygård</text><text fill="#000000" stroke="none" font-family="Arial" font-size="12px" font-style="italic" font-weight="normal" text-decoration="none" x="37.106640625" y="25">Back-end leader</text></g><g transform="translate(0,0) matrix(1,0,0,1,110.00000000000001,430)"><g><g transform="translate(0,0) scale(1.8499999999999996,0.4)"><g><path fill="#ffffff" stroke="none" d="M 0 0 L 100 0 Q 100 0 100 0 L 100 100 Q 100 100 100 100 L 0 100 Q 0 100 0 100 L 0 0 Q 0 0 0 0 Z"/><g transform="scale(0.5405405405405407,2.5)"><path fill="none" stroke="none" d="M 0 0 L 184.99999999999997 0 Q 184.99999999999997 0 184.99999999999997 0 L 184.99999999999997 40 Q 184.99999999999997 40 184.99999999999997 40 L 0 40 Q 0 40 0 40 L 0 0 Q 0 0 0 0 Z"/><path fill="none" stroke="#333333" d="M 0 0 M 0 0 L 184.99999999999997 0 Q 184.99999999999997 0 184.99999999999997 0 L 184.99999999999997 40 Q 184.99999999999997 40 184.99999999999997 40 L 0 40 Q 0 40 0 40 L 0 0 Q 0 0 0 0 Z" stroke-miterlimit="10" stroke-width="2"/></g></g></g></g></g><g transform="scale(1,1) matrix(1,0,0,1,113.70000000000002,430) translate(8,6)"><text fill="#000000" stroke="none" font-family="Arial" font-size="12px" font-style="normal" font-weight="bold" text-decoration="none" x="10.774609374999997" y="11">Emil Jakobus Schroeder</text><text fill="#000000" stroke="none" font-family="Arial" font-size="12px" font-style="italic" font-weight="normal" text-decoration="none" x="6.758007812499997" y="25">QA and Testing responsible</text></g><g transform="translate(0,0) matrix(1,0,0,1,110.00000000000001,320)"><g><g transform="translate(0,0) scale(1.8499999999999996,0.4)"><g><path fill="#ffffff" stroke="none" d="M 0 0 L 100 0 Q 100 0 100 0 L 100 100 Q 100 100 100 100 L 0 100 Q 0 100 0 100 L 0 0 Q 0 0 0 0 Z"/><g transform="scale(0.5405405405405407,2.5)"><path fill="none" stroke="none" d="M 0 0 L 184.99999999999997 0 Q 184.99999999999997 0 184.99999999999997 0 L 184.99999999999997 40 Q 184.99999999999997 40 184.99999999999997 40 L 0 40 Q 0 40 0 40 L 0 0 Q 0 0 0 0 Z"/><path fill="none" stroke="#333333" d="M 0 0 M 0 0 L 184.99999999999997 0 Q 184.99999999999997 0 184.99999999999997 0 L 184.99999999999997 40 Q 184.99999999999997 40 184.99999999999997 40 L 0 40 Q 0 40 0 40 L 0 0 Q 0 0 0 0 Z" stroke-miterlimit="10" stroke-width="2"/></g></g></g></g></g><g transform="scale(1,1) matrix(1,0,0,1,113.70000000000002,320) translate(8,6)"><text fill="#000000" stroke="none" font-family="Arial" font-size="12px" font-style="normal" font-weight="bold" text-decoration="none" x="35.114453125" y="11">Marco Radavelli</text><text fill="#000000" stroke="none" font-family="Arial" font-size="12px" font-style="italic" font-weight="normal" text-decoration="none" x="1.4289062499999972" y="25">Customer contact responsible</text></g><g transform="translate(0,0) matrix(1,0,0,1,325,377.5)"><g><g transform="translate(0,0) scale(1.9,0.4)"><g><path fill="#ffffff" stroke="none" d="M 0 0 L 100 0 Q 100 0 100 0 L 100 100 Q 100 100 100 100 L 0 100 Q 0 100 0 100 L 0 0 Q 0 0 0 0 Z"/><g transform="scale(0.5263157894736842,2.5)"><path fill="none" stroke="none" d="M 0 0 L 190 0 Q 190 0 190 0 L 190 40 Q 190 40 190 40 L 0 40 Q 0 40 0 40 L 0 0 Q 0 0 0 0 Z"/><path fill="none" stroke="#333333" d="M 0 0 M 0 0 L 190 0 Q 190 0 190 0 L 190 40 Q 190 40 190 40 L 0 40 Q 0 40 0 40 L 0 0 Q 0 0 0 0 Z" stroke-miterlimit="10" stroke-width="2"/></g></g></g></g></g><g transform="scale(1,1) matrix(1,0,0,1,328.8,377.5) translate(8,-1)"><text fill="#000000" stroke="none" font-family="Arial" font-size="12px" font-style="normal" font-weight="bold" text-decoration="none" x="23.179492187500017" y="11">Anders Smedegaard </text><text fill="#000000" stroke="none" font-family="Arial" font-size="12px" font-style="normal" font-weight="bold" text-decoration="none" x="56.18535156250002" y="25">Pedersen</text><text fill="#000000" stroke="none" font-family="Arial" font-size="12px" font-style="italic" font-weight="normal" text-decoration="none" x="38.84160156250002" y="39">Front-end leader</text></g><g transform="translate(0,0) matrix(1,0,0,1,325,320)"><g><g transform="translate(0,0) scale(1.9,0.4)"><g><path fill="#ffffff" stroke="none" d="M 0 0 L 100 0 Q 100 0 100 0 L 100 100 Q 100 100 100 100 L 0 100 Q 0 100 0 100 L 0 0 Q 0 0 0 0 Z"/><g transform="scale(0.5263157894736842,2.5)"><path fill="none" stroke="none" d="M 0 0 L 190 0 Q 190 0 190 0 L 190 40 Q 190 40 190 40 L 0 40 Q 0 40 0 40 L 0 0 Q 0 0 0 0 Z"/><path fill="none" stroke="#333333" d="M 0 0 M 0 0 L 190 0 Q 190 0 190 0 L 190 40 Q 190 40 190 40 L 0 40 Q 0 40 0 40 L 0 0 Q 0 0 0 0 Z" stroke-miterlimit="10" stroke-width="2"/></g></g></g></g></g><g transform="scale(1,1) matrix(1,0,0,1,328.8,320) translate(8,6)"><text fill="#000000" stroke="none" font-family="Arial" font-size="12px" font-style="normal" font-weight="bold" text-decoration="none" x="16.520312500000017" y="11">Ruben Håskjold Fagerli</text><text fill="#000000" stroke="none" font-family="Arial" font-size="12px" font-style="italic" font-weight="normal" text-decoration="none" x="38.85332031250002" y="25">System architect</text></g><g transform="translate(0,0) matrix(1,0,0,1,325,430)"><g><g transform="translate(0,0) scale(1.9,0.4)"><g><path fill="#ffffff" stroke="none" d="M 0 0 L 100 0 Q 100 0 100 0 L 100 100 Q 100 100 100 100 L 0 100 Q 0 100 0 100 L 0 0 Q 0 0 0 0 Z"/><g transform="scale(0.5263157894736842,2.5)"><path fill="none" stroke="none" d="M 0 0 L 190 0 Q 190 0 190 0 L 190 40 Q 190 40 190 40 L 0 40 Q 0 40 0 40 L 0 0 Q 0 0 0 0 Z"/><path fill="none" stroke="#333333" d="M 0 0 M 0 0 L 190 0 Q 190 0 190 0 L 190 40 Q 190 40 190 40 L 0 40 Q 0 40 0 40 L 0 0 Q 0 0 0 0 Z" stroke-miterlimit="10" stroke-width="2"/></g></g></g></g></g><g transform="scale(1,1) matrix(1,0,0,1,328.8,430) translate(8,6)"><text fill="#000000" stroke="none" font-family="Arial" font-size="12px" font-style="normal" font-weight="bold" text-decoration="none" x="42.19316406250002" y="11">Ondřej Hujňák</text><text fill="#000000" stroke="none" font-family="Arial" font-size="12px" font-style="italic" font-weight="normal" text-decoration="none" x="45.86113281250002" y="25">Scrum master</text></g><g transform="translate(0,0) matrix(1,0,0,1,390,50)"><g><g transform="translate(0,0) scale(2.1,0.9)"><g><path fill="#ffffff" stroke="none" d="M 0 0 L 100 0 Q 100 0 100 0 L 100 100 Q 100 100 100 100 L 0 100 Q 0 100 0 100 L 0 0 Q 0 0 0 0 Z"/><g transform="scale(0.47619047619047616,1.1111111111111112)"><path fill="none" stroke="none" d="M 0 0 L 210 0 Q 210 0 210 0 L 210 90 Q 210 90 210 90 L 0 90 Q 0 90 0 90 L 0 0 Q 0 0 0 0 Z"/><path fill="none" stroke="#333333" d="M 0 0 M 0 0 L 210 0 Q 210 0 210 0 L 210 90 Q 210 90 210 90 L 0 90 Q 0 90 0 90 L 0 0 Q 0 0 0 0 Z" stroke-miterlimit="10" stroke-width="2"/></g></g></g></g></g><g transform="scale(1,1) matrix(1,0,0,1,394.2,50) translate(8,8)"><text fill="#000000" stroke="none" font-family="Arial" font-size="14px" font-style="normal" font-weight="normal" text-decoration="none" x="73.35859374999998" y="14">NTNU</text></g><g transform="translate(0,0) matrix(1,0,0,1,425,80)"><g><g transform="translate(0,0) scale(1.4,0.4)"><g><path fill="#ffffff" stroke="none" d="M 0 0 L 100 0 Q 100 0 100 0 L 100 100 Q 100 100 100 100 L 0 100 Q 0 100 0 100 L 0 0 Q 0 0 0 0 Z"/><g transform="scale(0.7142857142857143,2.5)"><path fill="none" stroke="none" d="M 0 0 L 140 0 Q 140 0 140 0 L 140 40 Q 140 40 140 40 L 0 40 Q 0 40 0 40 L 0 0 Q 0 0 0 0 Z"/><path fill="none" stroke="#333333" d="M 0 0 M 0 0 L 140 0 Q 140 0 140 0 L 140 40 Q 140 40 140 40 L 0 40 Q 0 40 0 40 L 0 0 Q 0 0 0 0 Z" stroke-miterlimit="10" stroke-width="2"/></g></g></g></g></g><g transform="scale(1,1) matrix(1,0,0,1,427.8,80) translate(8,6)"><text fill="#000000" stroke="none" font-family="Arial" font-size="12px" font-style="normal" font-weight="bold" text-decoration="none" x="28.52617187499999" y="11">Gleb Sizov</text><text fill="#000000" stroke="none" font-family="Arial" font-size="12px" font-style="normal" font-weight="normal" text-decoration="none" x="12.178515624999989" y="25">Group Supervisor</text></g><g transform="matrix(1,0,0,1,173,145.5)"><g transform="translate(0,0)"><g transform="translate(-412,-219) translate(239,73.5) matrix(1,0,0,1,0,0)"><g><path fill="none" stroke="#000000" d="M 217.65981284232265 220 L 217.65981284232265 195 Q 217.65981284232265 185 207.65981284232265 185 L 187.5 185 Q 177.5 185 177.5 175 L 177.5 150" stroke-miterlimit="10" stroke-width="2"/></g></g></g></g><g transform="matrix(1,0,0,1,407.84018715767735,135.5)"><g transform="translate(0,0)"><g transform="translate(-410,-217) translate(2.1598128423226512,81.5) matrix(1,0,0,1,0,0)"><g><path fill="none" stroke="#000000" d="M 412.34018715767735 220 L 412.34018715767735 190 Q 412.34018715767735 180 422.34018715767735 180 L 485 180 Q 495 180 495 170 L 495 140" stroke-miterlimit="10" stroke-width="2"/></g></g></g></g><g transform="matrix(1,0,0,1,166.1470588235294,126)"><g transform="translate(0,0)"><g transform="translate(-162,-320) translate(-4.147058823529392,194) matrix(1,0,0,1,0,0)"><g><path fill="none" stroke="#000000" d="M 170.14705882352945 320.0935117733829 M 170.14705882352945 320.0935117733829 L 170.14705882352945 319.0935117733829 M 170.14705882352945 319.0935117733829 M 170.14705882352945 318.0935117733829 L 170.14705882352945 317.0935117733829 M 170.14705882352945 317.0935117733829 M 170.14705882352945 316.0935117733829 L 170.14705882352945 315.0935117733829 M 170.14705882352945 315.0935117733829 M 170.14705882352945 314.0935117733829 L 170.14705882352945 313.0935117733829 M 170.14705882352945 313.0935117733829 M 170.14705882352945 312.0935117733829 L 170.14705882352945 311.0935117733829 M 170.14705882352945 311.0935117733829 M 170.14705882352945 310.0935117733829 L 170.14705882352945 309.0935117733829 M 170.14705882352945 309.0935117733829 M 170.14705882352945 308.0935117733829 L 170.14705882352945 307.0935117733829 M 170.14705882352945 307.0935117733829 M 170.14705882352945 306.0935117733829 L 170.14705882352945 305.0935117733829 M 170.14705882352945 305.0935117733829 M 170.14705882352945 304.0935117733829 L 170.14705882352945 303.0935117733829 M 170.14705882352945 303.0935117733829 M 170.14705882352945 302.0935117733829 L 170.14705882352945 301.0935117733829 M 170.14705882352945 301.0935117733829 M 170.14705882352945 300.0935117733829 L 170.14705882352945 299.0935117733829 M 170.14705882352945 299.0935117733829 M 170.14705882352945 298.0935117733829 L 170.14705882352945 297.0935117733829 M 170.14705882352945 297.0935117733829 M 170.14705882352945 296.0935117733829 L 170.14705882352945 295.0935117733829 M 170.14705882352945 295.0935117733829 M 170.14705882352945 294.0935117733829 L 170.14705882352945 293.0935117733829 M 170.14705882352945 293.0935117733829 M 170.14705882352945 292.0935117733829 L 170.14705882352945 291.0935117733829 M 170.14705882352945 291.0935117733829 M 170.14705882352945 290.0935117733829 L 170.14705882352945 289.0935117733829 M 170.14705882352945 289.0935117733829 M 170.14705882352945 288.0935117733829 L 170.14705882352945 287.0935117733829 M 170.14705882352945 287.0935117733829 M 170.14705882352945 286.0935117733829 L 170.14705882352945 285.0935117733829 M 170.14705882352945 285.0935117733829 M 170.14705882352945 284.0935117733829 L 170.14705882352945 283.0935117733829 M 170.14705882352945 283.0935117733829 M 170.14705882352945 282.0935117733829 L 170.14705882352945 281.0935117733829 M 170.14705882352945 281.0935117733829 M 170.14705882352945 280.0935117733829 L 170.14705882352945 279.0935117733829 M 170.14705882352945 279.0935117733829 M 170.14705882352945 278.0935117733829 L 170.14705882352945 277.0935117733829 M 170.14705882352945 277.0935117733829 M 170.14705882352945 276.0935117733829 L 170.14705882352945 275.0935117733829 M 170.14705882352945 275.0935117733829 M 170.14705882352945 274.0935117733829 L 170.14705882352945 273.0935117733829 M 170.14705882352945 273.0935117733829 M 170.14705882352945 272.0935117733829 L 170.14705882352945 271.0935117733829 M 170.14705882352945 271.0935117733829 M 170.14705882352945 270.0935117733829 L 170.14705882352945 269.0935117733829 M 170.14705882352945 269.0935117733829 M 170.14705882352945 268.0935117733829 L 170.14705882352942 267.0935117733829 M 170.14705882352942 267.0935117733829 M 170.14705882352942 266.09351177338294 Q 170.14705882352942 265.59351177338294 170.14705882352942 265.09351177338294 M 170.14705882352942 265.09351177338294 M 170.14705882352942 264.09351177338294 Q 170.14705882352942 263.59351177338294 170.14705882352942 263.09351177338294 M 170.14705882352942 263.09351177338294 M 170.14705882352942 262.09351177338294 Q 170.14705882352942 261.59351177338294 170.14705882352942 261.09351177338294 M 170.14705882352942 261.09351177338294 M 170.14705882352942 260.09351177338294 Q 170.14705882352942 259.59351177338294 170.14705882352942 259.09351177338294 M 170.14705882352942 259.09351177338294 M 170.1470588235294 258.09351177338294 Q 170.1470588235294 257.59351177338294 170.1470588235294 257.09351177338294 M 170.1470588235294 257.09351177338294 M 170.14705882352942 256.09351177338294 Q 170.14705882352942 255.59351177338294 170.14705882352942 255.09351177338294 M 170.14705882352942 255.09351177338294 M 170.1470588235294 254.09351177338294 Q 170.14705882352942 253.59351177338294 170.14705882352942 253.09351177338294 M 170.14705882352942 253.09351177338294 M 170.14705882352942 252.09351177338297 Q 170.14705882352942 251.59351177338294 170.14705882352942 251.09351177338294 M 170.14705882352942 251.09351177338294 M 170.14705882352942 250.09351177338294 Q 170.14705882352942 249.59351177338294 170.14705882352942 249.09351177338294 M 170.14705882352942 249.09351177338294 M 170.14705882352942 248.09351177338294 Q 170.14705882352942 247.59351177338294 170.14705882352942 247.09351177338294 M 170.14705882352942 247.09351177338294 M 170.14705882352942 246.09351177338294 L 170.14705882352942 245.09351177338294 M 170.14705882352942 245.09351177338294 M 170.14705882352942 244.09351177338294 L 170.14705882352942 243.09351177338294 M 170.14705882352942 243.09351177338294 M 170.14705882352942 242.09351177338294 L 170.14705882352942 241.09351177338294 M 170.14705882352942 241.09351177338294 M 170.14705882352942 240.09351177338294 L 170.14705882352942 239.09351177338294 M 170.14705882352942 239.09351177338294 M 170.14705882352942 238.09351177338294 L 170.14705882352942 237.09351177338294 M 170.14705882352942 237.09351177338294 M 170.14705882352942 236.09351177338294 L 170.14705882352942 235.09351177338294 M 170.14705882352942 235.09351177338294 M 170.14705882352942 234.09351177338294 L 170.14705882352942 233.09351177338294 M 170.14705882352942 233.09351177338294 M 170.14705882352942 232.09351177338294 L 170.14705882352942 231.09351177338294 M 170.14705882352942 231.09351177338294 M 170.14705882352942 230.09351177338294 L 170.14705882352942 229.09351177338294 M 170.14705882352942 229.09351177338294 M 170.14705882352942 228.09351177338294 L 170.14705882352942 227.09351177338294 M 170.14705882352942 227.09351177338294 M 170.14705882352942 226.09351177338294 L 170.14705882352942 225.09351177338294 M 170.14705882352942 225.09351177338294 M 170.14705882352942 224.09351177338294 L 170.14705882352942 223.09351177338294 M 170.14705882352942 223.09351177338294 M 170.14705882352942 222.09351177338294 L 170.14705882352942 221.09351177338294 M 170.14705882352942 221.09351177338294 M 170.14705882352942 220.09351177338294 L 170.14705882352942 219.09351177338294 M 170.14705882352942 219.09351177338294 M 170.14705882352942 218.09351177338294 L 170.14705882352942 217.09351177338294 M 170.14705882352942 217.09351177338294 M 170.14705882352942 216.09351177338294 L 170.14705882352942 215.09351177338294 M 170.14705882352942 215.09351177338294 M 170.14705882352942 214.09351177338294 L 170.14705882352942 213.09351177338294 M 170.14705882352942 213.09351177338294 M 170.14705882352942 212.09351177338294 L 170.14705882352942 211.09351177338294 M 170.14705882352942 211.09351177338294 M 170.14705882352942 210.09351177338294 L 170.14705882352942 209.09351177338294 M 170.14705882352942 209.09351177338294 M 170.14705882352942 208.09351177338294 L 170.14705882352942 207.09351177338294 M 170.14705882352942 207.09351177338294 M 170.14705882352942 206.09351177338294 L 170.14705882352942 205.09351177338294 M 170.14705882352942 205.09351177338294 M 170.14705882352942 204.09351177338294 L 170.14705882352942 203.36450392446096 Q 170.14705882352942 203.22900784892192 170.14705882352942 203.09351177338291 M 170.14705882352942 203.09351177338291 M 170.14705882352942 202.0935117733829 Q 170.14705882352942 201.5935117733829 170.14705882352942 201.0935117733829 M 170.14705882352942 201.0935117733829 M 170.14705882352948 200.0935117733829 Q 170.14705882352948 199.5935117733829 170.14705882352948 199.0935117733829 M 170.14705882352948 199.0935117733829 M 170.14705882352948 198.09351177338286 Q 170.14705882352945 197.59351177338286 170.14705882352942 197.09351177338283 M 170.14705882352942 197.09351177338283 M 170.14705882352942 196.0935117733828 Q 170.14705882352942 195.5935117733828 170.14705882352942 195.09351177338277 M 170.14705882352942 195.09351177338277 M 170.1470588235294 194.09351177338274 Q 170.1470588235294 193.59351177338274 170.1470588235294 193.09351177338274 M 170.1470588235294 193.09351177338274 M 170.1470588235294 192.09351177338274 Q 170.1470588235294 191.59351177338272 170.1470588235294 191.09351177338272 M 170.1470588235294 191.09351177338272 M 170.1470588235294 190.09351177338272 Q 170.1470588235294 189.59351177338274 170.14705882352942 189.09351177338274 M 170.14705882352942 189.09351177338274 M 170.14705882352942 188.09351177338272 Q 170.14705882352942 187.59351177338272 170.14705882352942 187.09351177338272 M 170.14705882352942 187.09351177338272 M 170.14705882352945 186.09351177338272 Q 170.14705882352945 185.59351177338272 170.14705882352945 185.09351177338272 M 170.14705882352945 185.09351177338272 M 170.14705882352945 184.09351177338272 Q 170.14705882352945 183.72900784892184 170.14705882352942 183.36450392446096 L 170.14705882352942 183.09351177338272 M 170.14705882352942 183.09351177338272 M 170.14705882352942 182.09351177338272 L 170.14705882352942 181.09351177338272 M 170.14705882352942 181.09351177338272 M 170.14705882352942 180.09351177338272 L 170.14705882352942 179.09351177338272 M 170.14705882352942 179.09351177338272 M 170.14705882352942 178.09351177338272 L 170.14705882352942 177.09351177338272 M 170.14705882352942 177.09351177338272 M 170.14705882352942 176.09351177338272 L 170.14705882352942 175.09351177338272 M 170.14705882352942 175.09351177338272 M 170.14705882352942 174.09351177338272 L 170.14705882352942 173.09351177338272 M 170.14705882352942 173.09351177338272 M 170.14705882352942 172.09351177338272 L 170.14705882352942 171.09351177338272 M 170.14705882352942 171.09351177338272 M 170.14705882352942 170.09351177338272 L 170.14705882352942 169.09351177338272 M 170.14705882352942 169.09351177338272 M 170.14705882352942 168.09351177338272 L 170.14705882352942 167.09351177338272 M 170.14705882352942 167.09351177338272 M 170.14705882352942 166.09351177338272 L 170.14705882352942 165.09351177338272 M 170.14705882352942 165.09351177338272 M 170.14705882352942 164.09351177338272 L 170.14705882352942 163.09351177338272 M 170.14705882352942 163.09351177338272 M 170.14705882352942 162.09351177338272 L 170.14705882352942 161.09351177338272 M 170.14705882352942 161.09351177338272 M 170.14705882352942 160.09351177338272 L 170.14705882352942 159.09351177338272 M 170.14705882352942 159.09351177338272 M 170.14705882352942 158.09351177338272 L 170.14705882352942 157.09351177338272 M 170.14705882352942 157.09351177338272 M 170.14705882352942 156.09351177338272 L 170.14705882352942 155.09351177338272 M 170.14705882352942 155.09351177338272 M 170.14705882352942 154.09351177338272 L 170.14705882352942 153.09351177338272 M 170.14705882352942 153.09351177338272 M 170.14705882352942 152.09351177338272 L 170.14705882352942 151.09351177338272 M 170.14705882352942 151.09351177338272 M 170.14705882352942 150.09351177338272 L 170.14705882352942 149.09351177338272 M 170.14705882352942 149.09351177338272 M 170.14705882352942 148.09351177338272 L 170.14705882352942 147.09351177338272 M 170.14705882352942 147.09351177338272 M 170.14705882352942 146.09351177338272 L 170.14705882352942 145.09351177338272 M 170.14705882352942 145.09351177338272 M 170.14705882352942 144.09351177338272 L 170.14705882352942 143.09351177338272 M 170.14705882352942 143.09351177338272 M 170.14705882352942 142.09351177338272 L 170.14705882352942 141.09351177338272 M 170.14705882352942 141.09351177338272 M 170.14705882352942 140.09351177338272 L 170.14705882352942 139.09351177338272 M 170.14705882352942 139.09351177338272 M 170.14705882352942 138.09351177338272 L 170.14705882352942 137.09351177338272 M 170.14705882352942 137.09351177338272 M 170.14705882352942 136.09351177338272 L 170.14705882352942 135.09351177338272 M 170.14705882352942 135.09351177338272 M 170.14705882352942 134.09351177338272 L 170.14705882352942 133.09351177338272 M 170.14705882352942 133.09351177338272 M 170.14705882352942 132.09351177338272 L 170.14705882352942 131.09351177338272 M 170.14705882352942 131.09351177338272 M 170.1470588235294 130.09351177338272 L 170.1470588235294 130" stroke-miterlimit="10"/></g></g></g></g><g transform="matrix(1,0,0,1,403.5,116)"><g transform="translate(0,0)"><g transform="translate(-407,-280) translate(3.5,164) matrix(1,0,0,1,0,0)"><g><path fill="none" stroke="#000000" d="M 407.5 277.5 M 407.5 277.5 L 408.5 277.5 M 408.5 277.5 M 409.5 277.5 L 410.5 277.5 M 410.5 277.5 M 411.5 277.5 L 412.5 277.5 M 412.5 277.5 M 413.5 277.5 L 414.5 277.5 M 414.5 277.5 M 415.5 277.5 L 416.5 277.5 M 416.5 277.5 M 417.5 277.5 L 418.5 277.5 M 418.5 277.5 M 419.5 277.5 L 420.5 277.5 M 420.5 277.5 M 421.5 277.5 L 422.5 277.5 M 422.5 277.5 M 423.5 277.5 L 424.5 277.5 M 424.5 277.5 M 425.5 277.5 L 426.5 277.5 M 426.5 277.5 M 427.5 277.5 L 428.5 277.5 M 428.5 277.5 M 429.5 277.5 L 430.5 277.5 M 430.5 277.5 M 431.5 277.5 L 432.5 277.5 M 432.5 277.5 M 433.5 277.5 L 434.5 277.5 M 434.5 277.5 M 435.5 277.5 L 436.5 277.5 M 436.5 277.5 M 437.5 277.5 L 438.5 277.5 M 438.5 277.5 M 439.5 277.5 L 440.5 277.5 M 440.5 277.5 M 441.5 277.5 L 442.5 277.5 M 442.5 277.5 M 443.5 277.5 L 444.5 277.5 M 444.5 277.5 M 445.5 277.5 L 446.5 277.5 M 446.5 277.5 M 447.5 277.5 L 448.5 277.5 M 448.5 277.5 M 449.5 277.5 L 450.5 277.5 M 450.5 277.5 M 451.5 277.5 L 452.5 277.5 M 452.5 277.5 M 453.5 277.5 L 454.5 277.5 M 454.5 277.5 M 455.5 277.5 L 456.5 277.5 M 456.5 277.5 M 457.5 277.5 L 458.5 277.5 M 458.5 277.5 M 459.5 277.5 L 460.5 277.5 M 460.5 277.5 M 461.5 277.5 L 462.5 277.5 M 462.5 277.5 M 463.5 277.5 L 464.5 277.5 M 464.5 277.5 M 465.5 277.5 L 466.5 277.5 M 466.5 277.5 M 467.5 277.5 L 468.5 277.5 M 468.5 277.5 M 469.5 277.5 L 470.5 277.5 M 470.5 277.5 M 471.5 277.5 L 472.5 277.5 M 472.5 277.5 M 473.5 277.5 L 474.5 277.5 M 474.5 277.5 M 475.5 277.5 L 476.5 277.5 M 476.5 277.5 M 477.5 277.5 L 478.5 277.5 M 478.5 277.5 M 479.5 277.5 L 480.5 277.5 M 480.5 277.5 M 481.5 277.5 L 482.5 277.5 M 482.5 277.5 M 483.5 277.5 L 484.5 277.5 M 484.5 277.5 M 485.5 277.5 L 486.5 277.5 M 486.5 277.5 M 487.5 277.5 L 488.5 277.5 M 488.5 277.5 M 489.5 277.5 L 490.5 277.5 M 490.5 277.5 M 491.5 277.5 L 492.5 277.5 M 492.5 277.5 M 493.5 277.5 L 494.5 277.5 M 494.5 277.5 M 495.5 277.5 L 496.5 277.5 M 496.5 277.5 M 497.5 277.5 L 498.5 277.5 M 498.5 277.5 M 499.5 277.5 L 500.5 277.5 M 500.5 277.5 M 501.5 277.5 L 502.5 277.5 M 502.5 277.5 M 503.5 277.5 L 504.5 277.5 M 504.5 277.5 M 505.5 277.5 L 506.5 277.5 M 506.5 277.5 M 507.5 277.5 L 508.5 277.5 M 508.5 277.5 M 509.5 277.5 L 510.5 277.5 M 510.5 277.5 M 511.5 277.5 L 512.5 277.5 M 512.5 277.5 M 513.5 277.5 L 513.9949493661167 277.5 Q 514.2507171108396 277.5 514.4999431416384 277.49345828607596 M 514.4999431416384 277.49345828607596 M 515.4983061700068 277.4388043939107 Q 516.010148510885 277.3953661120876 516.4911571947683 277.3210941732697 M 516.4911571947683 277.3210941732697 M 517.4724340151113 277.12990285928794 Q 517.9719134782057 277.01092450808915 518.4331439344941 276.8536971500843 M 518.4331439344941 276.8536971500843 M 519.3605145090421 276.480901873355 Q 519.8220773946446 276.2644603955826 520.2376712885715 276.0020499261347 M 520.2376712885715 276.0020499261347 M 521.0447644889248 275.41293599517604 Q 521.4284679235157 275.0902062802162 521.7622665786281 274.717571785778 M 521.7622665786281 274.717571785778 M 522.3756560172361 273.92879548979545 Q 522.6506186155875 273.5204589748716 522.8788914461187 273.0654326921274 M 522.8788914461187 273.0654326921274 M 523.2745606541638 272.1476228824936 Q 523.4424785403091 271.68991661268865 523.5712558680036 271.19306978443285 M 523.5712558680036 271.19306978443285 M 523.7803120353485 270.21546390139486 Q 523.8626462517326 269.73580923165906 523.9133973173045 269.2245714111111 M 523.9133973173045 269.2245714111111 M 523.9812317802177 268.22702760372675 Q 523.9949493661167 267.8703725948128 523.9949493661167 267.5 L 523.9949493661167 267.2272017675213 M 523.9949493661167 267.2272017675213 M 523.9949493661167 266.2272017675213 L 523.9949493661167 265.2272017675213 M 523.9949493661167 265.2272017675213 M 523.9949493661167 264.2272017675213 L 523.9949493661167 263.2272017675213 M 523.9949493661167 263.2272017675213 M 523.9949493661167 262.2272017675213 L 523.9949493661167 261.2272017675213 M 523.9949493661167 261.2272017675213 M 523.9949493661167 260.2272017675213 L 523.9949493661167 259.2272017675213 M 523.9949493661167 259.2272017675213 M 523.9949493661167 258.2272017675213 L 523.9949493661167 257.2272017675213 M 523.9949493661167 257.2272017675213 M 523.9949493661167 256.2272017675213 L 523.9949493661167 255.2272017675213 M 523.9949493661167 255.2272017675213 M 523.9949493661167 254.2272017675213 L 523.9949493661167 253.2272017675213 M 523.9949493661167 253.2272017675213 M 523.9949493661167 252.2272017675213 L 523.9949493661167 251.2272017675213 M 523.9949493661167 251.2272017675213 M 523.9949493661167 250.2272017675213 L 523.9949493661167 249.2272017675213 M 523.9949493661167 249.2272017675213 M 523.9949493661167 248.2272017675213 L 523.9949493661167 247.2272017675213 M 523.9949493661167 247.2272017675213 M 523.9949493661167 246.2272017675213 L 523.9949493661167 245.2272017675213 M 523.9949493661167 245.2272017675213 M 523.9949493661167 244.2272017675213 L 523.9949493661167 243.2272017675213 M 523.9949493661167 243.2272017675213 M 523.9949493661167 242.2272017675213 L 523.9949493661167 241.2272017675213 M 523.9949493661167 241.2272017675213 M 523.9949493661167 240.2272017675213 L 523.9949493661167 239.2272017675213 M 523.9949493661167 239.2272017675213 M 523.9949493661167 238.2272017675213 L 523.9949493661167 237.2272017675213 M 523.9949493661167 237.2272017675213 M 523.9949493661167 236.2272017675213 L 523.9949493661167 235.2272017675213 M 523.9949493661167 235.2272017675213 M 523.9949493661167 234.2272017675213 L 523.9949493661167 233.2272017675213 M 523.9949493661167 233.2272017675213 M 523.9949493661167 232.2272017675213 L 523.9949493661167 231.2272017675213 M 523.9949493661167 231.2272017675213 M 523.9949493661167 230.2272017675213 L 523.9949493661167 229.2272017675213 M 523.9949493661167 229.2272017675213 M 523.9949493661167 228.2272017675213 L 523.9949493661167 227.2272017675213 M 523.9949493661167 227.2272017675213 M 523.9949493661167 226.2272017675213 L 523.9949493661167 225.2272017675213 M 523.9949493661167 225.2272017675213 M 523.9949493661167 224.2272017675213 L 523.9949493661167 223.2272017675213 M 523.9949493661167 223.2272017675213 M 523.9949493661167 222.2272017675213 L 523.9949493661167 221.2272017675213 M 523.9949493661167 221.2272017675213 M 523.9949493661167 220.2272017675213 L 523.9949493661167 219.2272017675213 M 523.9949493661167 219.2272017675213 M 523.9949493661167 218.2272017675213 L 523.9949493661167 217.2272017675213 M 523.9949493661167 217.2272017675213 M 523.9949493661167 216.2272017675213 L 523.9949493661167 215.2272017675213 M 523.9949493661167 215.2272017675213 M 523.9949493661167 214.2272017675213 L 523.9949493661167 213.2272017675213 M 523.9949493661167 213.2272017675213 M 523.9949493661167 212.2272017675213 L 523.9949493661167 211.2272017675213 M 523.9949493661167 211.2272017675213 M 523.9949493661167 210.2272017675213 L 523.9949493661167 209.2272017675213 M 523.9949493661167 209.2272017675213 M 523.9949493661167 208.2272017675213 L 523.9949493661167 207.2272017675213 M 523.9949493661167 207.2272017675213 M 523.9949493661167 206.2272017675213 L 523.9949493661167 205.2272017675213 M 523.9949493661167 205.2272017675213 M 523.9949493661167 204.2272017675213 L 523.9949493661167 203.2272017675213 M 523.9949493661167 203.2272017675213 M 523.9949493661167 202.2272017675213 L 523.9949493661167 201.2272017675213 M 523.9949493661167 201.2272017675213 M 523.9949493661167 200.2272017675213 L 523.9949493661167 199.2272017675213 M 523.9949493661167 199.2272017675213 M 523.9949493661167 198.2272017675213 L 523.9949493661167 197.2272017675213 M 523.9949493661167 197.2272017675213 M 523.9949493661167 196.2272017675213 L 523.9949493661167 195.2272017675213 M 523.9949493661167 195.2272017675213 M 523.9949493661167 194.2272017675213 L 523.9949493661167 193.2272017675213 M 523.9949493661167 193.2272017675213 M 523.9949493661167 192.2272017675213 L 523.9949493661167 191.2272017675213 M 523.9949493661167 191.2272017675213 M 523.9949493661167 190.2272017675213 L 523.9949493661167 189.2272017675213 M 523.9949493661167 189.2272017675213 M 523.9949493661167 188.2272017675213 L 523.9949493661167 187.2272017675213 M 523.9949493661167 187.2272017675213 M 523.9949493661167 186.2272017675213 L 523.9949493661167 185.2272017675213 M 523.9949493661167 185.2272017675213 M 523.9949493661167 184.2272017675213 L 523.9949493661167 183.2272017675213 M 523.9949493661167 183.2272017675213 M 523.9949493661167 182.2272017675213 L 523.9949493661167 181.2272017675213 M 523.9949493661167 181.2272017675213 M 523.9949493661167 180.2272017675213 L 523.9949493661167 179.2272017675213 M 523.9949493661167 179.2272017675213 M 523.9949493661167 178.2272017675213 L 523.9949493661167 177.2272017675213 M 523.9949493661167 177.2272017675213 M 523.9949493661167 176.2272017675213 L 523.9949493661167 175.2272017675213 M 523.9949493661167 175.2272017675213 M 523.9949493661167 174.2272017675213 L 523.9949493661167 173.2272017675213 M 523.9949493661167 173.2272017675213 M 523.9949493661167 172.2272017675213 L 523.9949493661167 171.2272017675213 M 523.9949493661167 171.2272017675213 M 523.9949493661167 170.2272017675213 L 523.9949493661167 169.2272017675213 M 523.9949493661167 169.2272017675213 M 523.9949493661167 168.2272017675213 L 523.9949493661167 167.2272017675213 M 523.9949493661167 167.2272017675213 M 523.9949493661167 166.2272017675213 L 523.9949493661167 165.2272017675213 M 523.9949493661167 165.2272017675213 M 523.9949493661167 164.2272017675213 L 523.9949493661167 163.2272017675213 M 523.9949493661167 163.2272017675213 M 523.9949493661167 162.2272017675213 L 523.9949493661167 161.2272017675213 M 523.9949493661167 161.2272017675213 M 523.9949493661167 160.2272017675213 L 523.9949493661167 159.2272017675213 M 523.9949493661167 159.2272017675213 M 523.9949493661167 158.2272017675213 L 523.9949493661167 157.2272017675213 M 523.9949493661167 157.2272017675213 M 523.9949493661167 156.2272017675213 L 523.9949493661167 155.2272017675213 M 523.9949493661167 155.2272017675213 M 523.9949493661167 154.2272017675213 L 523.9949493661167 153.2272017675213 M 523.9949493661167 153.2272017675213 M 523.9949493661167 152.2272017675213 L 523.9949493661167 151.2272017675213 M 523.9949493661167 151.2272017675213 M 523.9949493661167 150.2272017675213 L 523.9949493661167 149.2272017675213 M 523.9949493661167 149.2272017675213 M 523.9949493661167 148.2272017675213 L 523.9949493661167 147.2272017675213 M 523.9949493661167 147.2272017675213 M 523.9949493661167 146.2272017675213 L 523.9949493661167 145.2272017675213 M 523.9949493661167 145.2272017675213 M 523.9949493661167 144.2272017675213 L 523.9949493661167 143.2272017675213 M 523.9949493661167 143.2272017675213 M 523.9949493661167 142.2272017675213 L 523.9949493661167 141.2272017675213 M 523.9949493661167 141.2272017675213 M 523.9949493661167 140.2272017675213 L 523.9949493661167 139.2272017675213 M 523.9949493661167 139.2272017675213 M 523.9949493661167 138.2272017675213 L 523.9949493661167 137.2272017675213 M 523.9949493661167 137.2272017675213 M 523.9949493661167 136.2272017675213 L 523.9949493661167 135.2272017675213 M 523.9949493661167 135.2272017675213 M 523.9949493661167 134.2272017675213 L 523.9949493661167 133.2272017675213 M 523.9949493661167 133.2272017675213 M 523.9949493661167 132.2272017675213 L 523.9949493661167 131.2272017675213 M 523.9949493661167 131.2272017675213 M 523.9949493661167 130.2272017675213 L 523.9949493661167 129.2272017675213 M 523.9949493661167 129.2272017675213 M 523.9949493661167 128.2272017675213 L 523.9949493661167 127.22720176752131 M 523.9949493661167 127.22720176752131 M 523.9949493661167 126.22720176752131 L 523.9949493661167 125.22720176752131 M 523.9949493661167 125.22720176752131 M 523.9949493661167 124.22720176752131 L 523.9949493661167 123.22720176752131 M 523.9949493661167 123.22720176752131 M 523.9949493661167 122.22720176752131 L 523.9949493661167 121.22720176752131 M 523.9949493661167 121.22720176752131 M 523.9949493661167 120.22720176752131 L 523.9949493661167 120" stroke-miterlimit="10"/></g></g></g></g></g></svg>